<mxfile host="Electron" modified="2024-03-19T09:43:36.187Z" agent="Mozilla/5.0 (Macintosh; Intel Mac OS X 10_15_7) AppleWebKit/537.36 (KHTML, like Gecko) draw.io/24.0.4 Chrome/120.0.6099.109 Electron/28.1.0 Safari/537.36" version="24.0.4" etag="4aGSgyCdT4OqWD9aBRRb" type="device">
  <diagram id="iY5y8x0skONAHO3c0POJ" name="Page-1">
    <mxGraphModel dx="2954" dy="1214" grid="1" gridSize="10" guides="1" tooltips="1" connect="1" arrows="1" fold="1" page="1" pageScale="1" pageWidth="1169" pageHeight="827" math="0" shadow="0">
      <root>
        <mxCell id="0" />
        <mxCell id="1" parent="0" />
        <mxCell id="SU-Pu0lh8RxX1lOdiUnU-23" style="edgeStyle=orthogonalEdgeStyle;rounded=0;orthogonalLoop=1;jettySize=auto;html=1;exitX=0.5;exitY=0;exitDx=0;exitDy=0;entryX=0.5;entryY=1;entryDx=0;entryDy=0;endArrow=none;endFill=0;strokeWidth=3;" edge="1" parent="1" source="SU-Pu0lh8RxX1lOdiUnU-14" target="SU-Pu0lh8RxX1lOdiUnU-16">
          <mxGeometry relative="1" as="geometry" />
        </mxCell>
        <mxCell id="SU-Pu0lh8RxX1lOdiUnU-25" style="rounded=0;orthogonalLoop=1;jettySize=auto;html=1;exitX=1;exitY=0.25;exitDx=0;exitDy=0;entryX=0;entryY=1;entryDx=0;entryDy=0;strokeWidth=3;endArrow=none;endFill=0;" edge="1" parent="1" source="SU-Pu0lh8RxX1lOdiUnU-14" target="SU-Pu0lh8RxX1lOdiUnU-17">
          <mxGeometry relative="1" as="geometry" />
        </mxCell>
        <mxCell id="SU-Pu0lh8RxX1lOdiUnU-26" style="rounded=0;orthogonalLoop=1;jettySize=auto;html=1;exitX=1;exitY=0.5;exitDx=0;exitDy=0;entryX=0;entryY=0.5;entryDx=0;entryDy=0;strokeWidth=3;endArrow=none;endFill=0;" edge="1" parent="1" source="SU-Pu0lh8RxX1lOdiUnU-14" target="SU-Pu0lh8RxX1lOdiUnU-18">
          <mxGeometry relative="1" as="geometry" />
        </mxCell>
        <mxCell id="SU-Pu0lh8RxX1lOdiUnU-27" style="rounded=0;orthogonalLoop=1;jettySize=auto;html=1;exitX=0.625;exitY=1;exitDx=0;exitDy=0;entryX=0.25;entryY=0;entryDx=0;entryDy=0;strokeWidth=3;endArrow=none;endFill=0;" edge="1" parent="1" source="SU-Pu0lh8RxX1lOdiUnU-14" target="SU-Pu0lh8RxX1lOdiUnU-19">
          <mxGeometry relative="1" as="geometry" />
        </mxCell>
        <mxCell id="SU-Pu0lh8RxX1lOdiUnU-28" style="rounded=0;orthogonalLoop=1;jettySize=auto;html=1;exitX=0.375;exitY=1;exitDx=0;exitDy=0;entryX=0.75;entryY=0;entryDx=0;entryDy=0;strokeWidth=3;endArrow=none;endFill=0;" edge="1" parent="1" source="SU-Pu0lh8RxX1lOdiUnU-14" target="SU-Pu0lh8RxX1lOdiUnU-20">
          <mxGeometry relative="1" as="geometry" />
        </mxCell>
        <mxCell id="SU-Pu0lh8RxX1lOdiUnU-29" style="rounded=0;orthogonalLoop=1;jettySize=auto;html=1;exitX=0;exitY=0.5;exitDx=0;exitDy=0;entryX=1;entryY=0.5;entryDx=0;entryDy=0;endArrow=none;endFill=0;strokeWidth=3;" edge="1" parent="1" source="SU-Pu0lh8RxX1lOdiUnU-14" target="SU-Pu0lh8RxX1lOdiUnU-22">
          <mxGeometry relative="1" as="geometry" />
        </mxCell>
        <mxCell id="SU-Pu0lh8RxX1lOdiUnU-30" style="rounded=0;orthogonalLoop=1;jettySize=auto;html=1;exitX=0;exitY=0.25;exitDx=0;exitDy=0;entryX=0.75;entryY=1;entryDx=0;entryDy=0;strokeWidth=3;endArrow=none;endFill=0;" edge="1" parent="1" source="SU-Pu0lh8RxX1lOdiUnU-14" target="SU-Pu0lh8RxX1lOdiUnU-15">
          <mxGeometry relative="1" as="geometry" />
        </mxCell>
        <mxCell id="SU-Pu0lh8RxX1lOdiUnU-14" value="National HPC" style="shape=hexagon;perimeter=hexagonPerimeter2;whiteSpace=wrap;html=1;fixedSize=1;fillColor=#fff2cc;strokeColor=#d6b656;strokeWidth=2;" vertex="1" parent="1">
          <mxGeometry x="500" y="343.5" width="120" height="80" as="geometry" />
        </mxCell>
        <mxCell id="SU-Pu0lh8RxX1lOdiUnU-15" value="National Service Fingerprints" style="rounded=1;whiteSpace=wrap;html=1;fillColor=#d5e8d4;strokeColor=#82b366;strokeWidth=2;" vertex="1" parent="1">
          <mxGeometry x="330" y="240" width="120" height="60" as="geometry" />
        </mxCell>
        <mxCell id="SU-Pu0lh8RxX1lOdiUnU-16" value="General HPC Info" style="rounded=1;whiteSpace=wrap;html=1;fillColor=#f8cecc;strokeColor=#b85450;strokeWidth=2;" vertex="1" parent="1">
          <mxGeometry x="500" y="190" width="120" height="60" as="geometry" />
        </mxCell>
        <mxCell id="SU-Pu0lh8RxX1lOdiUnU-17" value="Interim Service" style="rounded=1;whiteSpace=wrap;html=1;fillColor=#dae8fc;strokeColor=#6c8ebf;strokeWidth=2;" vertex="1" parent="1">
          <mxGeometry x="680" y="240" width="120" height="60" as="geometry" />
        </mxCell>
        <mxCell id="SU-Pu0lh8RxX1lOdiUnU-18" value="Kay Usage and Statistics" style="rounded=1;whiteSpace=wrap;html=1;fillColor=#ffe6cc;strokeColor=#d79b00;strokeWidth=2;" vertex="1" parent="1">
          <mxGeometry x="700" y="354" width="120" height="60" as="geometry" />
        </mxCell>
        <mxCell id="SU-Pu0lh8RxX1lOdiUnU-19" value="Software Catalogue" style="rounded=1;whiteSpace=wrap;html=1;fillColor=#cdeb8b;strokeColor=#36393d;strokeWidth=2;" vertex="1" parent="1">
          <mxGeometry x="620" y="490" width="120" height="60" as="geometry" />
        </mxCell>
        <mxCell id="SU-Pu0lh8RxX1lOdiUnU-20" value="User Support" style="rounded=1;whiteSpace=wrap;html=1;fillColor=#cce5ff;strokeColor=#36393d;strokeWidth=2;" vertex="1" parent="1">
          <mxGeometry x="380" y="490" width="120" height="60" as="geometry" />
        </mxCell>
        <mxCell id="SU-Pu0lh8RxX1lOdiUnU-22" value="Programming Tips" style="rounded=1;whiteSpace=wrap;html=1;fillColor=#f8cecc;strokeColor=#b85450;strokeWidth=2;" vertex="1" parent="1">
          <mxGeometry x="310" y="354" width="120" height="60" as="geometry" />
        </mxCell>
      </root>
    </mxGraphModel>
  </diagram>
</mxfile>
